G04*
G04 #@! TF.GenerationSoftware,Altium Limited,Altium Designer,18.1.9 (240)*
G04*
G04 Layer_Color=8388736*
%FSLAX25Y25*%
%MOIN*%
G70*
G01*
G75*
%ADD33R,0.03359X0.04540*%
%ADD34R,0.20485X0.09816*%
%ADD35R,0.20800X0.10308*%
%ADD36R,0.07493X0.04343*%
%ADD37R,0.04343X0.07493*%
%ADD38R,0.04737X0.04147*%
%ADD39R,0.04737X0.04343*%
%ADD40R,0.04343X0.03162*%
%ADD41R,0.04000X0.02000*%
%ADD42R,0.02000X0.04000*%
%ADD43R,0.13600X0.13600*%
%ADD44R,0.06312X0.05918*%
%ADD45R,0.04147X0.04737*%
%ADD46R,0.03162X0.04343*%
%ADD47R,0.07965X0.05524*%
%ADD48C,0.06800*%
%ADD49R,0.06800X0.06800*%
%ADD50C,0.02572*%
D33*
X335827Y287205D02*
D03*
X339567Y278150D02*
D03*
X332087D02*
D03*
D34*
X307087Y287402D02*
D03*
X500000Y255906D02*
D03*
Y318898D02*
D03*
D35*
X307087Y270148D02*
D03*
Y304658D02*
D03*
X500000Y238650D02*
D03*
Y273160D02*
D03*
Y336152D02*
D03*
Y301642D02*
D03*
D36*
X354023Y287106D02*
D03*
Y275689D02*
D03*
X365441Y287106D02*
D03*
Y275689D02*
D03*
D37*
Y294980D02*
D03*
X354023D02*
D03*
D38*
X391240Y294390D02*
D03*
Y288681D02*
D03*
X444193Y266536D02*
D03*
Y272244D02*
D03*
Y308268D02*
D03*
Y302559D02*
D03*
X458662Y284547D02*
D03*
Y290256D02*
D03*
X405020Y286417D02*
D03*
Y280709D02*
D03*
X398130Y286417D02*
D03*
Y280709D02*
D03*
X384842Y294390D02*
D03*
Y288681D02*
D03*
X391240Y300394D02*
D03*
Y306102D02*
D03*
X412008Y314469D02*
D03*
Y308760D02*
D03*
X418488Y314469D02*
D03*
Y308760D02*
D03*
X437008Y272244D02*
D03*
Y266535D02*
D03*
X410433Y268110D02*
D03*
Y273819D02*
D03*
X417323Y268110D02*
D03*
Y273819D02*
D03*
X437894Y319882D02*
D03*
Y314173D02*
D03*
Y302559D02*
D03*
Y308268D02*
D03*
D39*
X451083Y302756D02*
D03*
Y308071D02*
D03*
Y272047D02*
D03*
Y266732D02*
D03*
D40*
X451083Y290256D02*
D03*
Y296161D02*
D03*
X444193Y278642D02*
D03*
Y284547D02*
D03*
Y296161D02*
D03*
Y290256D02*
D03*
X451083Y284547D02*
D03*
Y278642D02*
D03*
X403740Y268012D02*
D03*
Y273917D02*
D03*
D41*
X413139Y298239D02*
D03*
Y296239D02*
D03*
Y294339D02*
D03*
Y292339D02*
D03*
Y290339D02*
D03*
Y288339D02*
D03*
Y286439D02*
D03*
Y284439D02*
D03*
X431939D02*
D03*
Y286439D02*
D03*
Y288339D02*
D03*
Y290339D02*
D03*
Y292339D02*
D03*
Y294339D02*
D03*
Y296239D02*
D03*
Y298239D02*
D03*
D42*
X415639Y281939D02*
D03*
X417639D02*
D03*
X419539D02*
D03*
X421539D02*
D03*
X423539D02*
D03*
X425539D02*
D03*
X427439D02*
D03*
X429439D02*
D03*
Y300739D02*
D03*
X427439D02*
D03*
X425539D02*
D03*
X423539D02*
D03*
X421539D02*
D03*
X419539D02*
D03*
X417639D02*
D03*
X415639D02*
D03*
D43*
X422539Y291339D02*
D03*
D44*
X377658Y294980D02*
D03*
Y288681D02*
D03*
X390354Y239665D02*
D03*
Y245965D02*
D03*
X403563Y239665D02*
D03*
Y245965D02*
D03*
D45*
X404626Y300689D02*
D03*
X398917D02*
D03*
Y307579D02*
D03*
X404626D02*
D03*
X429626Y267224D02*
D03*
X423917D02*
D03*
Y273622D02*
D03*
X429626D02*
D03*
X424803Y309055D02*
D03*
X430512D02*
D03*
Y315453D02*
D03*
X424803D02*
D03*
X429626Y254331D02*
D03*
X423917D02*
D03*
X429626Y260728D02*
D03*
X423917D02*
D03*
D46*
X398819Y315748D02*
D03*
X404724D02*
D03*
X423819Y248130D02*
D03*
X429724D02*
D03*
X418504D02*
D03*
X412598D02*
D03*
X435236Y241831D02*
D03*
X441142D02*
D03*
X429823D02*
D03*
X423917D02*
D03*
D47*
X390354Y231890D02*
D03*
Y220039D02*
D03*
D48*
X453563Y222539D02*
D03*
X413563D02*
D03*
X423563D02*
D03*
X433563D02*
D03*
X443563D02*
D03*
D49*
X403563D02*
D03*
D50*
X307087Y308102D02*
D03*
X303642D02*
D03*
X300197D02*
D03*
X310531D02*
D03*
X313976D02*
D03*
X300197Y301213D02*
D03*
X303642D02*
D03*
X307087D02*
D03*
X310531D02*
D03*
X313976D02*
D03*
X307087Y273592D02*
D03*
X303642D02*
D03*
X300197D02*
D03*
X310531D02*
D03*
X313976D02*
D03*
X300197Y266703D02*
D03*
X303642D02*
D03*
X307087D02*
D03*
X310531D02*
D03*
X313976D02*
D03*
X500000Y242094D02*
D03*
X496555D02*
D03*
X493110D02*
D03*
X503445D02*
D03*
X506890D02*
D03*
X493110Y235205D02*
D03*
X496555D02*
D03*
X500000D02*
D03*
X503445D02*
D03*
X506890D02*
D03*
X500000Y276606D02*
D03*
X496555D02*
D03*
X493110D02*
D03*
X503445D02*
D03*
X506890D02*
D03*
X493110Y269717D02*
D03*
X496555D02*
D03*
X500000D02*
D03*
X503445D02*
D03*
X506890D02*
D03*
X500000Y305087D02*
D03*
X496555D02*
D03*
X493110D02*
D03*
X503445D02*
D03*
X506890D02*
D03*
X493110Y298197D02*
D03*
X496555D02*
D03*
X500000D02*
D03*
X503445D02*
D03*
X506890D02*
D03*
X500000Y339598D02*
D03*
X496555D02*
D03*
X493110D02*
D03*
X503445D02*
D03*
X506890D02*
D03*
X493110Y332709D02*
D03*
X496555D02*
D03*
X500000D02*
D03*
X503445D02*
D03*
X506890D02*
D03*
X484842Y319291D02*
D03*
X482382Y316831D02*
D03*
X479921Y314370D02*
D03*
X477461Y312008D02*
D03*
X475000Y309547D02*
D03*
X472539Y306988D02*
D03*
X470079Y304496D02*
D03*
X467618Y302067D02*
D03*
X465158Y299606D02*
D03*
X462697Y297244D02*
D03*
X460236Y294685D02*
D03*
X437992Y284439D02*
D03*
X435039Y290339D02*
D03*
X437992Y290354D02*
D03*
X440945Y290339D02*
D03*
X440945Y284449D02*
D03*
X454724Y292717D02*
D03*
Y282087D02*
D03*
X463091Y287402D02*
D03*
X454724D02*
D03*
X487697Y321260D02*
D03*
Y253543D02*
D03*
X484842Y255512D02*
D03*
X482382Y257972D02*
D03*
X479921Y260433D02*
D03*
X477461Y262894D02*
D03*
X475000Y265354D02*
D03*
X472539Y267815D02*
D03*
X470079Y270276D02*
D03*
X467618Y272736D02*
D03*
X465158Y275197D02*
D03*
X462697Y277658D02*
D03*
X460236Y280118D02*
D03*
X487697Y316437D02*
D03*
X485236Y313976D02*
D03*
X482776Y311516D02*
D03*
X480315Y309154D02*
D03*
X477854Y306693D02*
D03*
X475394Y304134D02*
D03*
X472933Y301642D02*
D03*
X470472Y299213D02*
D03*
X468012Y296752D02*
D03*
X465551Y294390D02*
D03*
X463091Y291831D02*
D03*
X487697Y258366D02*
D03*
X485236Y260827D02*
D03*
X482776Y263287D02*
D03*
X480315Y265748D02*
D03*
X477854Y268209D02*
D03*
X475394Y270669D02*
D03*
X472933Y273130D02*
D03*
X470472Y275590D02*
D03*
X468012Y278051D02*
D03*
X465551Y280512D02*
D03*
X463091Y282972D02*
D03*
X390354Y223228D02*
D03*
X410128Y248130D02*
D03*
X406004Y292520D02*
D03*
X402559D02*
D03*
X399114D02*
D03*
X406004Y296260D02*
D03*
X402559Y296239D02*
D03*
X399114Y296260D02*
D03*
X395669D02*
D03*
Y292520D02*
D03*
X319390Y285433D02*
D03*
X322736D02*
D03*
X326279D02*
D03*
X329724D02*
D03*
X333169D02*
D03*
X319390Y289370D02*
D03*
X322835D02*
D03*
X326279D02*
D03*
X329724D02*
D03*
X333169D02*
D03*
X372539Y293012D02*
D03*
X369094D02*
D03*
Y296949D02*
D03*
X372539D02*
D03*
X348917Y285433D02*
D03*
X345472D02*
D03*
X342028D02*
D03*
X338583D02*
D03*
X348917Y289370D02*
D03*
X345472D02*
D03*
X342028D02*
D03*
X338583D02*
D03*
X411417Y280512D02*
D03*
X433465Y315453D02*
D03*
Y309055D02*
D03*
X437894Y311221D02*
D03*
X429626Y270423D02*
D03*
X437008Y263583D02*
D03*
X421063Y254331D02*
D03*
Y260728D02*
D03*
X443602Y241831D02*
D03*
X421457D02*
D03*
X391240Y285728D02*
D03*
X395965Y307579D02*
D03*
X395965Y300689D02*
D03*
X398130Y277756D02*
D03*
X354023Y272638D02*
D03*
X365453D02*
D03*
X335827Y278150D02*
D03*
X403563Y251457D02*
D03*
X434055Y319882D02*
D03*
Y302559D02*
D03*
X390354Y251476D02*
D03*
X403740Y264764D02*
D03*
X404626Y311516D02*
D03*
X422539Y291339D02*
D03*
X417323Y264764D02*
D03*
X410433Y264764D02*
D03*
X424803Y319882D02*
D03*
X426476Y304429D02*
D03*
X435433Y294339D02*
D03*
X437992Y296239D02*
D03*
X435039Y284439D02*
D03*
X435433Y298239D02*
D03*
X409449Y318898D02*
D03*
X435925Y278346D02*
D03*
X428839D02*
D03*
X435236Y258366D02*
D03*
X409449Y300197D02*
D03*
M02*
