M48
;Layer_Color=9474304
;FILE_FORMAT=2:5
INCH,LZ
;TYPE=PLATED
T1F00S00C0.00787
T2F00S00C0.03937
%
T01
X049311Y0235205
X0496555
X05
X0503445
X050689
Y0242094
X0503445
X05
X0496555
X049311
X0487697Y0253543
X0484842Y0255512
X0482382Y0257972
X0479921Y0260433
X0477461Y0262894
X0475Y0265354
X0472539Y0267815
X0470079Y0270276
X0475394Y0270669
X0477854Y0268209
X0480315Y0265748
X0482776Y0263287
X0485236Y0260827
X0487697Y0258366
X049311Y0269717
X0496555
X05
X0503445
X050689
Y0276606
X0503445
X05
X0496555
X049311
Y0298197
X0496555
X05
X0503445
X050689
Y0305087
X0503445
X05
X0496555
X049311
X0482776Y0311516
X0480315Y0309154
X0477854Y0306693
X0475394Y0304134
X0472933Y0301642
X0470472Y0299213
X0470079Y0304496
X0472539Y0306988
X0475Y0309547
X0477461Y0312008
X0472933Y027313
X0470472Y027559
X0468012Y0278051
X0465551Y0280512
X0463091Y0282972
Y0287402
Y0291831
X0465551Y029439
X0468012Y0296752
X0467618Y0302067
X0465158Y0299606
X0462697Y0297244
X0460236Y0294685
X0454724Y0292717
Y0287402
Y0282087
X0460236Y0280118
X0462697Y0277658
X0465158Y0275197
X0467618Y0272736
X0435925Y0278346
X0435039Y0284439
X0437992
X0440945Y0284449
X0440945Y0290339
X0437992Y0290354
X0435039Y0290339
X0435433Y0294339
Y0298239
X0437992Y0296239
X0434055Y0302559
X0433465Y0309055
X0437894Y0311221
X0426476Y0304429
X0422539Y0291339
X0406004Y029252
X0402559
X0399114
X0395669
Y029626
X0399114
X0402559Y0296239
X0406004Y029626
X0409449Y0300197
X0395965Y0300689
X0395965Y0307579
X0404626Y0311516
X0411417Y0280512
X039813Y0277756
X039124Y0285728
X0372539Y0293012
X0369094
Y0296949
X0372539
X0348917Y028937
X0345472
X0342028
X0338583
Y0285433
X0342028
X0345472
X0348917
X0333169
X0329724
X0326279
X0322736
X031939
Y028937
X0322835
X0326279
X0329724
X0333169
X0335827Y027815
X0354023Y0272638
X0365453
X0390354Y0251476
X0403563Y0251457
X0410128Y024813
X0410433Y0264764
X040374Y0264764
X0417323
X0421063Y0260728
Y0254331
X0421457Y0241831
X0443602
X0435236Y0258366
X0437008Y0263583
X0429626Y0270423
X0428839Y0278346
X0390354Y0223228
X0313976Y0266703
Y0273592
Y0301213
Y0308102
X0310531
X0307087
X0303642
X0300197
Y0301213
X0303642
X0307087
X0310531
Y0273592
X0307087
X0303642
X0300197
Y0266703
X0303642
X0307087
X0310531
X0409449Y0318898
X0424803Y0319882
X0434055
X0433465Y0315453
X0479921Y031437
X0482382Y0316831
X0484842Y0319291
X0487697Y032126
Y0316437
X0485236Y0313976
X049311Y0332709
X0496555
X05
X0503445
X050689
Y0339598
X0503445
X05
X0496555
X049311
T02
X0403563Y0222539
X0413563
X0423563
X0433563
X0443563
X0453563
M30
