G04*
G04 #@! TF.GenerationSoftware,Altium Limited,Altium Designer,18.1.9 (240)*
G04*
G04 Layer_Color=65535*
%FSLAX25Y25*%
%MOIN*%
G70*
G01*
G75*
%ADD10C,0.00984*%
%ADD11C,0.01575*%
%ADD12C,0.00787*%
%ADD13C,0.00591*%
%ADD14C,0.00600*%
%ADD15C,0.01000*%
%ADD16C,0.01181*%
%ADD17C,0.00394*%
G36*
X333603Y254837D02*
Y254779D01*
X334179Y251838D01*
Y251780D01*
X334237Y251723D01*
X334295Y251665D01*
X336256Y250857D01*
X336428D01*
X338908Y252588D01*
X338966D01*
X339081Y252530D01*
X341215Y250512D01*
Y250454D01*
Y250396D01*
Y250339D01*
Y250281D01*
X339485Y247859D01*
Y247743D01*
Y247686D01*
Y247628D01*
X340408Y245609D01*
Y245552D01*
X340465Y245494D01*
X340581D01*
X343349Y244975D01*
X343464D01*
X343522Y244917D01*
Y244860D01*
Y241919D01*
Y241861D01*
X343464Y241803D01*
X343349D01*
X340638Y241227D01*
X340581D01*
X340523Y241169D01*
X340465Y241111D01*
X339600Y238920D01*
Y238862D01*
Y238804D01*
Y238747D01*
Y238689D01*
X341215Y236440D01*
Y236325D01*
Y236267D01*
X339081Y234191D01*
X339024Y234133D01*
X338966D01*
X338908Y234191D01*
X336659Y235690D01*
X336428D01*
X335506Y235171D01*
X335390D01*
X335333Y235229D01*
X333257Y240189D01*
Y240246D01*
X333314Y240419D01*
X333603Y240534D01*
X333660Y240592D01*
X333718Y240650D01*
X333776Y240708D01*
X333949Y240823D01*
X334179Y241054D01*
X334468Y241342D01*
X334756Y241688D01*
X334987Y242149D01*
X335160Y242668D01*
X335217Y243303D01*
Y243360D01*
Y243533D01*
X335160Y243764D01*
X335102Y244110D01*
X334987Y244456D01*
X334814Y244860D01*
X334583Y245264D01*
X334295Y245609D01*
X334237Y245667D01*
X334122Y245782D01*
X333949Y245898D01*
X333660Y246129D01*
X333314Y246302D01*
X332911Y246417D01*
X332507Y246532D01*
X331988Y246590D01*
X331757D01*
X331527Y246532D01*
X331181Y246475D01*
X330835Y246359D01*
X330431Y246186D01*
X330085Y245955D01*
X329681Y245609D01*
X329624Y245552D01*
X329566Y245437D01*
X329393Y245264D01*
X329220Y244975D01*
X329047Y244629D01*
X328931Y244225D01*
X328816Y243822D01*
X328758Y243303D01*
Y243245D01*
Y243014D01*
X328816Y242726D01*
X328931Y242322D01*
X329104Y241919D01*
X329393Y241457D01*
X329739Y241054D01*
X330258Y240650D01*
Y240592D01*
X330315Y240534D01*
X330373D01*
X330662Y240419D01*
X330719Y240361D01*
Y240189D01*
X328701Y235229D01*
X328643D01*
X328470Y235171D01*
X327490Y235690D01*
X327317D01*
X325067Y234191D01*
X325010Y234133D01*
X324952D01*
X324894Y234191D01*
X322761Y236267D01*
Y236325D01*
Y236382D01*
Y236440D01*
X324376Y238689D01*
Y238747D01*
Y238804D01*
Y238862D01*
Y238920D01*
X323453Y241111D01*
Y241169D01*
X323337Y241227D01*
X320627Y241803D01*
X320569D01*
X320512Y241861D01*
X320454Y241919D01*
Y244860D01*
Y244917D01*
X320512Y244975D01*
X320627D01*
X323395Y245494D01*
X323453D01*
X323626Y245609D01*
X324433Y247628D01*
Y247686D01*
Y247743D01*
Y247801D01*
Y247859D01*
X322761Y250281D01*
Y250339D01*
Y250396D01*
Y250454D01*
Y250512D01*
X324894Y252530D01*
X324952Y252588D01*
X325067D01*
X327490Y250857D01*
X327720D01*
X329681Y251665D01*
X329739D01*
X329797Y251723D01*
Y251838D01*
X330373Y254779D01*
Y254837D01*
X330431Y254894D01*
X333545D01*
X333603Y254837D01*
D02*
G37*
G36*
X341446Y231653D02*
X341676Y231538D01*
X341215Y230961D01*
X341158Y231019D01*
X341100Y231077D01*
X340985Y231134D01*
X340869Y231192D01*
X340754D01*
X340581Y231134D01*
X340350Y230904D01*
X340292Y230731D01*
X340235Y230500D01*
Y228655D01*
X339600D01*
Y231769D01*
X340235D01*
Y231423D01*
X340292Y231480D01*
X340408Y231596D01*
X340696Y231711D01*
X341042Y231769D01*
X341215D01*
X341446Y231653D01*
D02*
G37*
G36*
X328182D02*
X328355Y231480D01*
X328528Y231307D01*
X328643Y231019D01*
X328701Y230673D01*
Y228655D01*
X328066D01*
Y230500D01*
Y230558D01*
Y230615D01*
X328009Y230846D01*
X327778Y231077D01*
X327663Y231192D01*
X327317D01*
X327144Y231134D01*
X326913Y230904D01*
X326855Y230731D01*
X326798Y230500D01*
Y228655D01*
X326163D01*
Y231769D01*
X326798D01*
Y231423D01*
X326855Y231480D01*
X327028Y231596D01*
X327259Y231711D01*
X327663Y231769D01*
X327836D01*
X328182Y231653D01*
D02*
G37*
G36*
X321953Y231711D02*
X322242Y231653D01*
X322530Y231423D01*
X322588Y231365D01*
X322645Y231134D01*
X322703Y230788D01*
Y230212D01*
Y230154D01*
Y230096D01*
Y229750D01*
X322645Y229347D01*
X322530Y229001D01*
X322472Y228943D01*
X322242Y228828D01*
X321953Y228655D01*
X321665Y228597D01*
X321607D01*
X321434Y228655D01*
X321146Y228770D01*
X320800Y228943D01*
Y226521D01*
X320858Y226578D01*
X321031Y226694D01*
X321261Y226809D01*
X321665Y226867D01*
X321838D01*
X322184Y226751D01*
X322357Y226636D01*
X322530Y226405D01*
X322645Y226175D01*
X322703Y225829D01*
Y223810D01*
X322069D01*
Y225598D01*
Y225656D01*
Y225713D01*
X322011Y225944D01*
X321780Y226175D01*
X321665Y226290D01*
X321319D01*
X321146Y226232D01*
X320915Y226002D01*
X320858Y225829D01*
X320800Y225598D01*
Y223810D01*
X320281D01*
Y231769D01*
X320800D01*
Y231423D01*
X320858Y231480D01*
X321088Y231596D01*
X321319Y231711D01*
X321665Y231769D01*
X321723D01*
X321953Y231711D01*
D02*
G37*
G36*
X332161D02*
X332507Y231596D01*
X332911Y231307D01*
X332565Y230904D01*
X332449Y230961D01*
X332219Y231077D01*
X331930Y231134D01*
X331700Y231192D01*
X331584D01*
X331411Y231134D01*
X331238Y231077D01*
X331123Y230846D01*
Y230788D01*
X331181Y230731D01*
X331296Y230615D01*
X331584Y230558D01*
X332103Y230500D01*
X332276D01*
X332565Y230327D01*
X332911Y230039D01*
X332968Y229866D01*
X333026Y229577D01*
Y229520D01*
Y229404D01*
X332968Y229289D01*
X332853Y229116D01*
X332680Y228885D01*
X332449Y228770D01*
X332161Y228655D01*
X331700Y228597D01*
X331584D01*
X331238Y228655D01*
X330835Y228828D01*
X330373Y229174D01*
X330777Y229577D01*
X330835Y229520D01*
X331065Y229404D01*
X331411Y229231D01*
X331757Y229174D01*
X331873D01*
X332103Y229231D01*
X332276Y229347D01*
X332392Y229462D01*
Y229577D01*
Y229635D01*
X332334Y229693D01*
X332219Y229808D01*
X331988Y229923D01*
X331354D01*
X331296Y229981D01*
X331008Y230096D01*
X330719Y230385D01*
X330662Y230558D01*
X330604Y230846D01*
Y230904D01*
Y231019D01*
X330719Y231307D01*
X330892Y231480D01*
X331065Y231653D01*
X331354Y231711D01*
X331700Y231769D01*
X331815D01*
X332161Y231711D01*
D02*
G37*
G36*
X343407D02*
X343753Y231538D01*
X344099Y231250D01*
X343637Y230846D01*
X343580Y230904D01*
X343464Y231019D01*
X343291Y231134D01*
X343003Y231192D01*
X342888D01*
X342657Y231077D01*
X342484Y230961D01*
X342369Y230788D01*
X342311Y230558D01*
X342253Y230212D01*
Y230154D01*
Y230039D01*
X342369Y229750D01*
X342599Y229404D01*
X342772Y229289D01*
X343003Y229231D01*
X343061D01*
X343234Y229289D01*
X343407Y229404D01*
X343637Y229577D01*
X344099Y229174D01*
X344041Y229058D01*
X343810Y228885D01*
X343464Y228712D01*
X343003Y228597D01*
X342772D01*
X342542Y228712D01*
X342311Y228828D01*
X342080Y229001D01*
X341849Y229289D01*
X341676Y229693D01*
X341619Y230212D01*
Y230269D01*
Y230442D01*
X341676Y230731D01*
X341792Y231019D01*
X341965Y231250D01*
X342196Y231538D01*
X342542Y231711D01*
X343003Y231769D01*
X343118D01*
X343407Y231711D01*
D02*
G37*
G36*
X338908Y228655D02*
X338274D01*
Y228943D01*
X338216Y228885D01*
X338043Y228770D01*
X337813Y228655D01*
X337524Y228597D01*
X337351D01*
X337005Y228712D01*
X336774Y228828D01*
X336601Y229058D01*
X336486Y229289D01*
X336428Y229635D01*
Y231769D01*
X337063D01*
Y229923D01*
Y229808D01*
X337121Y229577D01*
X337351Y229347D01*
X337467Y229289D01*
X337697Y229231D01*
X337813D01*
X337986Y229347D01*
X338159Y229520D01*
X338274Y229693D01*
Y229923D01*
Y231769D01*
X338908D01*
Y228655D01*
D02*
G37*
G36*
X345944Y231711D02*
X346232Y231596D01*
X346463Y231480D01*
X346636Y231250D01*
X346809Y230904D01*
X346867Y230500D01*
Y229923D01*
X344906D01*
Y229866D01*
Y229808D01*
X345021Y229577D01*
X345252Y229289D01*
X345425Y229231D01*
X345656Y229174D01*
X345713D01*
X345886Y229231D01*
X346117Y229347D01*
X346290Y229520D01*
X346751Y229116D01*
X346694Y229058D01*
X346463Y228885D01*
X346117Y228655D01*
X345656Y228597D01*
X345425D01*
X345194Y228712D01*
X344964Y228828D01*
X344733Y229001D01*
X344502Y229289D01*
X344329Y229693D01*
X344272Y230212D01*
Y230269D01*
Y230442D01*
X344329Y230731D01*
X344445Y231019D01*
X344560Y231250D01*
X344791Y231538D01*
X345137Y231711D01*
X345540Y231769D01*
X345771D01*
X345944Y231711D01*
D02*
G37*
G36*
X334987D02*
X335275Y231653D01*
X335563Y231423D01*
X335621Y231365D01*
X335736Y231134D01*
X335852Y230788D01*
X335910Y230212D01*
Y230154D01*
Y230096D01*
X335852Y229750D01*
X335794Y229347D01*
X335563Y229001D01*
X335506Y228943D01*
X335333Y228828D01*
X335044Y228655D01*
X334641Y228597D01*
X334525D01*
X334295Y228655D01*
X334006Y228770D01*
X333660Y229001D01*
X333603Y229058D01*
X333545Y229289D01*
X333430Y229693D01*
X333372Y230212D01*
Y230269D01*
Y230327D01*
X333430Y230673D01*
X333487Y231077D01*
X333660Y231423D01*
X333718Y231480D01*
X333891Y231596D01*
X334237Y231711D01*
X334641Y231769D01*
X334756D01*
X334987Y231711D01*
D02*
G37*
G36*
X324779D02*
X325067Y231596D01*
X325298Y231480D01*
X325471Y231250D01*
X325644Y230904D01*
X325702Y230500D01*
Y229923D01*
X323741D01*
Y229866D01*
Y229808D01*
X323856Y229577D01*
X324029Y229289D01*
X324202Y229231D01*
X324433Y229174D01*
X324491D01*
X324722Y229231D01*
X324894Y229347D01*
X325125Y229520D01*
X325644Y229116D01*
X325529Y229058D01*
X325298Y228885D01*
X324952Y228655D01*
X324491Y228597D01*
X324260D01*
X324029Y228712D01*
X323799Y228828D01*
X323568Y229001D01*
X323337Y229289D01*
X323164Y229693D01*
X323107Y230212D01*
Y230269D01*
Y230442D01*
X323164Y230731D01*
X323280Y231019D01*
X323395Y231250D01*
X323626Y231538D01*
X323972Y231711D01*
X324376Y231769D01*
X324606D01*
X324779Y231711D01*
D02*
G37*
G36*
X318839D02*
X319127Y231653D01*
X319358Y231423D01*
X319416Y231365D01*
X319531Y231134D01*
X319647Y230788D01*
X319704Y230212D01*
Y230154D01*
Y230096D01*
X319647Y229750D01*
X319589Y229347D01*
X319358Y229001D01*
X319301Y228943D01*
X319127Y228828D01*
X318839Y228655D01*
X318436Y228597D01*
X318320D01*
X318090Y228655D01*
X317801Y228770D01*
X317455Y229001D01*
X317397Y229058D01*
X317340Y229347D01*
X317282Y229693D01*
X317224Y230212D01*
Y230269D01*
Y230327D01*
X317282Y230673D01*
X317340Y231019D01*
X317455Y231423D01*
X317513Y231480D01*
X317686Y231596D01*
X318032Y231711D01*
X318436Y231769D01*
X318551D01*
X318839Y231711D01*
D02*
G37*
G36*
X340696Y226751D02*
X340927Y226636D01*
X340408Y226117D01*
Y226175D01*
X340292Y226232D01*
X340177Y226290D01*
X339889D01*
X339716Y226232D01*
X339543Y226002D01*
X339427Y225829D01*
Y225598D01*
Y223810D01*
X338793D01*
Y226867D01*
X339427D01*
Y226521D01*
X339485Y226578D01*
X339658Y226694D01*
X339889Y226809D01*
X340292Y226867D01*
X340465D01*
X340696Y226751D01*
D02*
G37*
G36*
X330892Y223810D02*
X330258D01*
Y224041D01*
X330200Y223983D01*
X330027Y223868D01*
X329797Y223753D01*
X329450Y223695D01*
X329393D01*
X329162Y223753D01*
X328874Y223868D01*
X328643Y224156D01*
X328585Y224214D01*
X328528Y224387D01*
X328470Y224502D01*
Y224733D01*
X328412Y224964D01*
Y225310D01*
Y225367D01*
Y225483D01*
X328470Y225829D01*
X328528Y226232D01*
X328585Y226405D01*
X328643Y226521D01*
X328701Y226578D01*
X328816Y226694D01*
X329104Y226809D01*
X329450Y226867D01*
X329508D01*
X329739Y226809D01*
X329970Y226751D01*
X330258Y226521D01*
Y228135D01*
X330892D01*
Y223810D01*
D02*
G37*
G36*
X328182Y226751D02*
X328412Y226636D01*
X327951Y226117D01*
X327893Y226175D01*
X327836Y226232D01*
X327663Y226290D01*
X327432D01*
X327259Y226232D01*
X327028Y226002D01*
X326971Y225829D01*
Y225598D01*
Y223810D01*
X326336D01*
Y226867D01*
X326971D01*
Y226521D01*
X327028Y226578D01*
X327144Y226694D01*
X327374Y226809D01*
X327720Y226867D01*
X327951D01*
X328182Y226751D01*
D02*
G37*
G36*
X334641Y223810D02*
X334064D01*
X333372Y225944D01*
X332738Y223810D01*
X332219D01*
X331238Y226867D01*
X331873D01*
X332449Y224675D01*
X333199Y226867D01*
X333660D01*
X334352Y224675D01*
X334929Y226867D01*
X335621D01*
X334641Y223810D01*
D02*
G37*
G36*
X337524Y226751D02*
X337697Y226636D01*
X337928Y226463D01*
X338043Y226232D01*
X338101Y225886D01*
Y223810D01*
X337524D01*
Y224041D01*
X337467Y223983D01*
X337351Y223868D01*
X337063Y223753D01*
X336717Y223695D01*
X336544D01*
X336198Y223810D01*
X335967Y223926D01*
X335794Y224099D01*
X335679Y224329D01*
X335621Y224675D01*
Y224733D01*
Y224848D01*
X335736Y225137D01*
X335852Y225310D01*
X336083Y225483D01*
X336313Y225540D01*
X336659Y225598D01*
X337524D01*
Y225886D01*
Y225944D01*
X337467Y226117D01*
X337236Y226232D01*
X337121Y226290D01*
X336659D01*
X336428Y226232D01*
X336313Y226117D01*
X335852Y226463D01*
X335910Y226521D01*
X336083Y226694D01*
X336371Y226809D01*
X336890Y226867D01*
X337063D01*
X337524Y226751D01*
D02*
G37*
G36*
X324722Y226809D02*
X325010Y226751D01*
X325240Y226636D01*
X325413Y226463D01*
X325587Y226232D01*
X325644Y225886D01*
Y223810D01*
X325010D01*
Y224041D01*
X324952Y223983D01*
X324837Y223868D01*
X324606Y223753D01*
X324260Y223695D01*
X324087D01*
X323683Y223810D01*
X323453Y223926D01*
X323280Y224099D01*
X323164Y224329D01*
X323107Y224675D01*
Y224733D01*
Y224848D01*
X323222Y225137D01*
X323337Y225310D01*
X323568Y225483D01*
X323799Y225540D01*
X324145Y225598D01*
X325010D01*
Y225886D01*
Y225944D01*
X324952Y226117D01*
X324722Y226232D01*
X324606Y226290D01*
X324145D01*
X323914Y226232D01*
X323741Y226117D01*
X323280Y226463D01*
X323337Y226521D01*
X323568Y226694D01*
X323856Y226809D01*
X324318Y226867D01*
X324549D01*
X324722Y226809D01*
D02*
G37*
G36*
X342599D02*
X342888Y226694D01*
X343118Y226578D01*
X343291Y226348D01*
X343464Y226002D01*
X343522Y225598D01*
Y225021D01*
X341561D01*
Y224964D01*
Y224906D01*
X341676Y224675D01*
X341849Y224387D01*
X342022Y224329D01*
X342253Y224272D01*
X342311D01*
X342542Y224329D01*
X342715Y224445D01*
X342945Y224618D01*
X343407Y224214D01*
X343349Y224156D01*
X343118Y223983D01*
X342772Y223753D01*
X342311Y223695D01*
X342080D01*
X341849Y223810D01*
X341619Y223926D01*
X341388Y224099D01*
X341158Y224387D01*
X340985Y224791D01*
X340927Y225310D01*
Y225367D01*
Y225540D01*
X340985Y225829D01*
X341100Y226117D01*
X341215Y226348D01*
X341446Y226636D01*
X341792Y226809D01*
X342196Y226867D01*
X342426D01*
X342599Y226809D01*
D02*
G37*
%LPC*%
G36*
X321434Y231192D02*
X321319D01*
X321146Y231077D01*
X321031Y230961D01*
X320915Y230788D01*
X320858Y230558D01*
X320800Y230212D01*
Y230154D01*
Y230039D01*
X320858Y229750D01*
X321088Y229404D01*
X321204Y229289D01*
X321434Y229231D01*
X321550D01*
X321780Y229347D01*
X321896Y229462D01*
X321953Y229635D01*
X322069Y229866D01*
Y230212D01*
Y230269D01*
Y230385D01*
X322011Y230731D01*
X321780Y231019D01*
X321665Y231134D01*
X321434Y231192D01*
D02*
G37*
G36*
X345713D02*
X345425D01*
X345252Y231134D01*
X345021Y230904D01*
X344964Y230731D01*
X344906Y230500D01*
X346232D01*
Y230558D01*
Y230615D01*
X346117Y230846D01*
X345886Y231077D01*
X345713Y231192D01*
D02*
G37*
G36*
X334641D02*
X334583D01*
X334468Y231134D01*
X334295Y231077D01*
X334179Y230904D01*
X334122Y230788D01*
X334064Y230558D01*
X334006Y230212D01*
Y230096D01*
Y229923D01*
X334064Y229635D01*
X334179Y229462D01*
Y229404D01*
X334237Y229347D01*
X334410Y229289D01*
X334641Y229231D01*
X334698D01*
X334814Y229289D01*
X334987Y229347D01*
X335102Y229462D01*
X335160Y229520D01*
X335217Y229635D01*
X335275Y229866D01*
Y230212D01*
Y230327D01*
Y230500D01*
X335217Y230731D01*
X335102Y230904D01*
Y230961D01*
X334987Y231077D01*
X334871Y231134D01*
X334641Y231192D01*
D02*
G37*
G36*
X324549D02*
X324260D01*
X324087Y231134D01*
X323856Y230904D01*
X323799Y230731D01*
X323741Y230500D01*
X325067D01*
Y230558D01*
Y230615D01*
X324952Y230846D01*
X324722Y231077D01*
X324549Y231192D01*
D02*
G37*
G36*
X318436D02*
X318378D01*
X318263Y231134D01*
X318090Y231077D01*
X317974Y230904D01*
X317916Y230846D01*
X317859Y230731D01*
X317801Y230500D01*
X317743Y230212D01*
Y230154D01*
X317801Y229923D01*
X317859Y229693D01*
X317974Y229462D01*
Y229404D01*
X318032Y229347D01*
X318205Y229289D01*
X318436Y229231D01*
X318493D01*
X318666Y229289D01*
X318839Y229347D01*
X318954Y229462D01*
Y229520D01*
X319012Y229635D01*
X319070Y229866D01*
Y230212D01*
Y230327D01*
Y230500D01*
X319012Y230731D01*
X318954Y230904D01*
X318897Y230961D01*
X318839Y231077D01*
X318666Y231134D01*
X318436Y231192D01*
D02*
G37*
G36*
X329681Y226290D02*
X329566D01*
X329393Y226175D01*
X329277Y226059D01*
X329162Y225886D01*
X329104Y225656D01*
X329047Y225310D01*
Y225252D01*
Y225137D01*
X329104Y224848D01*
X329335Y224502D01*
X329450Y224387D01*
X329681Y224329D01*
X329797D01*
X329970Y224445D01*
X330085Y224560D01*
X330142Y224733D01*
X330258Y224964D01*
Y225310D01*
Y225367D01*
Y225483D01*
X330200Y225829D01*
X330027Y226117D01*
X329854Y226232D01*
X329681Y226290D01*
D02*
G37*
G36*
X337524Y225021D02*
X336717D01*
X336544Y224964D01*
X336313Y224906D01*
X336256Y224675D01*
Y224618D01*
X336313Y224502D01*
X336486Y224329D01*
X336774Y224272D01*
X336890D01*
X337178Y224329D01*
X337409Y224502D01*
X337467Y224675D01*
X337524Y224848D01*
Y225021D01*
D02*
G37*
G36*
X325010D02*
X324202D01*
X324029Y224964D01*
X323799Y224906D01*
X323741Y224675D01*
Y224618D01*
X323799Y224502D01*
X323972Y224329D01*
X324318Y224272D01*
X324433D01*
X324664Y224329D01*
X324894Y224502D01*
X325010Y224675D01*
Y224848D01*
Y225021D01*
D02*
G37*
G36*
X342369Y226290D02*
X342080D01*
X341907Y226232D01*
X341676Y226002D01*
X341619Y225829D01*
X341561Y225598D01*
X342888D01*
Y225656D01*
Y225713D01*
X342772Y225944D01*
X342542Y226175D01*
X342369Y226290D01*
D02*
G37*
%LPD*%
D10*
X329134Y278150D02*
G03*
X329134Y278150I-492J0D01*
G01*
D11*
X410739Y302339D02*
G03*
X410739Y302339I-400J0D01*
G01*
D12*
X338681Y285433D02*
X341732D01*
Y281496D02*
Y285433D01*
X329921D02*
X332972D01*
X329921Y281496D02*
Y285433D01*
D13*
X349988Y281398D02*
X358059D01*
X349988Y273228D02*
Y289567D01*
X358059Y273228D02*
Y289567D01*
X356090D02*
X358059D01*
X356090Y273228D02*
X358059D01*
X349988D02*
X352055D01*
X349988Y289567D02*
X352055D01*
X359732Y290945D02*
Y299016D01*
X351563D02*
X367901D01*
X351563Y290945D02*
X367901D01*
Y292913D01*
X351563Y290945D02*
Y292913D01*
Y296949D02*
Y299016D01*
X367901Y296949D02*
Y299016D01*
X361405Y281398D02*
X369476D01*
X361405Y273228D02*
Y289567D01*
X369476Y273228D02*
Y289567D01*
X367508D02*
X369476D01*
X367508Y273228D02*
X369476D01*
X361405D02*
X363472D01*
X361405Y289567D02*
X363472D01*
X388583Y291535D02*
X393898D01*
X388583Y286319D02*
X389665D01*
X388583D02*
Y296752D01*
X389665D01*
X392815D02*
X393898D01*
Y286319D02*
Y296752D01*
X392815Y286319D02*
X393898D01*
X448425Y305413D02*
X453740D01*
X452658Y310531D02*
X453740D01*
Y300295D02*
Y310531D01*
X452658Y300295D02*
X453740D01*
X448425D02*
X449508D01*
X448425D02*
Y310531D01*
X449508D01*
X452658Y288386D02*
X453543D01*
X448622D02*
X449508D01*
X448622Y298031D02*
X449508D01*
X452658D02*
X453543D01*
X448622Y293209D02*
X453543D01*
X448622Y288386D02*
Y298031D01*
X453543Y288386D02*
Y298031D01*
X448425Y269390D02*
X453740D01*
X448425Y264272D02*
X449508D01*
X448425D02*
Y274508D01*
X449508D01*
X452658D02*
X453740D01*
Y264272D02*
Y274508D01*
X452658Y264272D02*
X453740D01*
X445768Y276772D02*
X446654D01*
X441732D02*
X442618D01*
X441732Y286418D02*
X442618D01*
X445768D02*
X446654D01*
X441732Y281595D02*
X446654D01*
X441732Y276772D02*
Y286418D01*
X446654Y276772D02*
Y286418D01*
X441536Y269390D02*
X446850D01*
X445768Y274606D02*
X446850D01*
Y264173D02*
Y274606D01*
X445768Y264173D02*
X446850D01*
X441536D02*
X442618D01*
X441536D02*
Y274606D01*
X442618D01*
X441536Y305413D02*
X446850D01*
X441536Y300197D02*
X442618D01*
X441536D02*
Y310630D01*
X442618D01*
X445768D02*
X446850D01*
Y300197D02*
Y310630D01*
X445768Y300197D02*
X446850D01*
X441732Y298031D02*
X442618D01*
X445768D02*
X446654D01*
X445768Y288386D02*
X446654D01*
X441732D02*
X442618D01*
X441732Y293209D02*
X446654D01*
Y288386D02*
Y298031D01*
X441732Y288386D02*
Y298031D01*
X456004Y287402D02*
X461319D01*
X460236Y292618D02*
X461319D01*
Y282185D02*
Y292618D01*
X460236Y282185D02*
X461319D01*
X456004D02*
X457087D01*
X456004D02*
Y292618D01*
X457087D01*
X448622Y286418D02*
X449508D01*
X452658D02*
X453543D01*
X452658Y276772D02*
X453543D01*
X448622D02*
X449508D01*
X448622Y281595D02*
X453543D01*
Y276772D02*
Y286418D01*
X448622Y276772D02*
Y286418D01*
X402362Y283563D02*
X407677D01*
X402362Y278346D02*
X403445D01*
X402362D02*
Y288779D01*
X403445D01*
X406595D02*
X407677D01*
Y278346D02*
Y288779D01*
X406595Y278346D02*
X407677D01*
X395473Y283563D02*
X400787D01*
X395473Y278346D02*
X396555D01*
X395473D02*
Y288779D01*
X396555D01*
X399705D02*
X400787D01*
Y278346D02*
Y288779D01*
X399705Y278346D02*
X400787D01*
X382185Y291535D02*
X387500D01*
X382185Y286319D02*
X383268D01*
X382185D02*
Y296752D01*
X383268D01*
X386417D02*
X387500D01*
Y286319D02*
Y296752D01*
X386417Y286319D02*
X387500D01*
X374213Y291831D02*
X381102D01*
X379626Y285433D02*
X381102D01*
Y298228D01*
X379626D02*
X381102D01*
X374213D02*
X375689D01*
X374213Y285433D02*
Y298228D01*
Y285433D02*
X375689D01*
X405315Y266142D02*
X406201D01*
X401279D02*
X402165D01*
X401279Y275787D02*
X402165D01*
X405315D02*
X406201D01*
X401279Y270965D02*
X406201D01*
X401279Y266142D02*
Y275787D01*
X406201Y266142D02*
Y275787D01*
X401772Y298032D02*
Y303346D01*
X396555Y302264D02*
Y303346D01*
X406988D01*
Y302264D02*
Y303346D01*
Y298032D02*
Y299114D01*
X396555Y298032D02*
X406988D01*
X396555D02*
Y299114D01*
X401772Y304921D02*
Y310236D01*
X406988Y304921D02*
Y306004D01*
X396555Y304921D02*
X406988D01*
X396555D02*
Y306004D01*
Y309154D02*
Y310236D01*
X406988D01*
Y309154D02*
Y310236D01*
X388583Y303248D02*
X393898D01*
X392815Y308465D02*
X393898D01*
Y298031D02*
Y308465D01*
X392815Y298031D02*
X393898D01*
X388583D02*
X389665D01*
X388583D02*
Y308465D01*
X389665D01*
X426772Y264567D02*
Y269882D01*
X421555Y268799D02*
Y269882D01*
X431988D01*
Y268799D02*
Y269882D01*
Y264567D02*
Y265650D01*
X421555Y264567D02*
X431988D01*
X421555D02*
Y265650D01*
X426772Y270965D02*
Y276280D01*
X431988Y270965D02*
Y272047D01*
X421555Y270965D02*
X431988D01*
X421555D02*
Y272047D01*
Y275197D02*
Y276280D01*
X431988D01*
Y275197D02*
Y276280D01*
X427657Y306398D02*
Y311713D01*
X432874Y306398D02*
Y307480D01*
X422441Y306398D02*
X432874D01*
X422441D02*
Y307480D01*
Y310630D02*
Y311713D01*
X432874D01*
Y310630D02*
Y311713D01*
X427657Y312795D02*
Y318110D01*
X422441Y317027D02*
Y318110D01*
X432874D01*
Y317027D02*
Y318110D01*
Y312795D02*
Y313878D01*
X422441Y312795D02*
X432874D01*
X422441D02*
Y313878D01*
X396949Y313287D02*
Y314173D01*
Y317323D02*
Y318209D01*
X406595Y317323D02*
Y318209D01*
Y313287D02*
Y314173D01*
X401772Y313287D02*
Y318209D01*
X396949D02*
X406595D01*
X396949Y313287D02*
X406595D01*
X421949Y245669D02*
Y246555D01*
Y249705D02*
Y250591D01*
X431595Y249705D02*
Y250591D01*
Y245669D02*
Y246555D01*
X426772Y245669D02*
Y250591D01*
X421949D02*
X431595D01*
X421949Y245669D02*
X431595D01*
X420374Y249705D02*
Y250591D01*
Y245669D02*
Y246555D01*
X410728Y245669D02*
Y246555D01*
Y249705D02*
Y250591D01*
X415551Y245669D02*
Y250591D01*
X410728Y245669D02*
X420374D01*
X410728Y250591D02*
X420374D01*
X426772Y251673D02*
Y256988D01*
X421555Y255906D02*
Y256988D01*
X431988D01*
Y255906D02*
Y256988D01*
Y251673D02*
Y252756D01*
X421555Y251673D02*
X431988D01*
X421555D02*
Y252756D01*
X426772Y258071D02*
Y263386D01*
X421555Y262303D02*
Y263386D01*
X431988D01*
Y262303D02*
Y263386D01*
Y258071D02*
Y259154D01*
X421555Y258071D02*
X431988D01*
X421555D02*
Y259154D01*
X409350Y311614D02*
X414665D01*
X409350Y306398D02*
X410433D01*
X409350D02*
Y316831D01*
X410433D01*
X413583D02*
X414665D01*
Y306398D02*
Y316831D01*
X413583Y306398D02*
X414665D01*
X415831Y311614D02*
X421145D01*
X415831Y306398D02*
X416913D01*
X415831D02*
Y316831D01*
X416913D01*
X420063D02*
X421145D01*
Y306398D02*
Y316831D01*
X420063Y306398D02*
X421145D01*
X433366Y239370D02*
Y240256D01*
Y243406D02*
Y244291D01*
X443012Y243406D02*
Y244291D01*
Y239370D02*
Y240256D01*
X438189Y239370D02*
Y244291D01*
X433366D02*
X443012D01*
X433366Y239370D02*
X443012D01*
X431693Y243406D02*
Y244291D01*
Y239370D02*
Y240256D01*
X422047Y239370D02*
Y240256D01*
Y243406D02*
Y244291D01*
X426870Y239370D02*
Y244291D01*
X422047Y239370D02*
X431693D01*
X422047Y244291D02*
X431693D01*
X434350Y269390D02*
X439665D01*
X434350Y264173D02*
X435433D01*
X434350D02*
Y274606D01*
X435433D01*
X438583D02*
X439665D01*
Y264173D02*
Y274606D01*
X438583Y264173D02*
X439665D01*
X407776Y270965D02*
X413091D01*
X412008Y276181D02*
X413091D01*
Y265748D02*
Y276181D01*
X412008Y265748D02*
X413091D01*
X407776D02*
X408858D01*
X407776D02*
Y276181D01*
X408858D01*
X414665Y270965D02*
X419980D01*
X418898Y276181D02*
X419980D01*
Y265748D02*
Y276181D01*
X418898Y265748D02*
X419980D01*
X414665D02*
X415748D01*
X414665D02*
Y276181D01*
X415748D01*
X386154Y234965D02*
X394654D01*
X386054Y216965D02*
X394654D01*
Y234965D01*
X386054Y216965D02*
X386154Y234965D01*
X386910Y242815D02*
X393799D01*
X386910Y249213D02*
X388386D01*
X386910Y236417D02*
Y249213D01*
Y236417D02*
X388386D01*
X392323D02*
X393799D01*
Y249213D01*
X392323D02*
X393799D01*
X400118Y242815D02*
X407008D01*
X400118Y249213D02*
X401594D01*
X400118Y236417D02*
Y249213D01*
Y236417D02*
X401594D01*
X405532D02*
X407008D01*
Y249213D01*
X405532D02*
X407008D01*
X435236Y317028D02*
X440551D01*
X435236Y311811D02*
X436319D01*
X435236D02*
Y322244D01*
X436319D01*
X439469D02*
X440551D01*
Y311811D02*
Y322244D01*
X439469Y311811D02*
X440551D01*
X435236Y305413D02*
X440551D01*
X439469Y310630D02*
X440551D01*
Y300197D02*
Y310630D01*
X439469Y300197D02*
X440551D01*
X435236D02*
X436319D01*
X435236D02*
Y310630D01*
X436319D01*
D14*
X432339Y300139D02*
Y301139D01*
X431339Y281539D02*
X432339D01*
X412739D02*
Y282539D01*
Y301139D02*
X413739D01*
X412739Y281539D02*
X413739D01*
X432339D02*
Y282539D01*
X431339Y301139D02*
X432339D01*
X412739Y300139D02*
Y301139D01*
D15*
X458763Y217421D02*
Y227540D01*
X398307Y217421D02*
X458763D01*
X398307Y227540D02*
X458763D01*
X398307Y217421D02*
Y227540D01*
X311910Y345866D02*
Y349865D01*
X313909Y351864D01*
X315908Y349865D01*
Y345866D01*
Y348865D01*
X311910D01*
X317908Y351864D02*
Y345866D01*
X320906D01*
X321906Y346866D01*
Y350865D01*
X320906Y351864D01*
X317908D01*
X323906Y350865D02*
X324905Y351864D01*
X326905D01*
X327904Y350865D01*
Y349865D01*
X326905Y348865D01*
X327904Y347866D01*
Y346866D01*
X326905Y345866D01*
X324905D01*
X323906Y346866D01*
Y347866D01*
X324905Y348865D01*
X323906Y349865D01*
Y350865D01*
X324905Y348865D02*
X326905D01*
X329904Y350865D02*
X330903Y351864D01*
X332903D01*
X333902Y350865D01*
Y349865D01*
X332903Y348865D01*
X331903D01*
X332903D01*
X333902Y347866D01*
Y346866D01*
X332903Y345866D01*
X330903D01*
X329904Y346866D01*
X335902Y350865D02*
X336901Y351864D01*
X338901D01*
X339900Y350865D01*
Y349865D01*
X338901Y348865D01*
X337901D01*
X338901D01*
X339900Y347866D01*
Y346866D01*
X338901Y345866D01*
X336901D01*
X335902Y346866D01*
X345899Y345866D02*
X341900D01*
X345899Y349865D01*
Y350865D01*
X344899Y351864D01*
X342899D01*
X341900Y350865D01*
X353896Y351864D02*
X357895D01*
X355895D01*
Y345866D01*
X362893D02*
X360894D01*
X359894Y346866D01*
Y348865D01*
X360894Y349865D01*
X362893D01*
X363893Y348865D01*
Y347866D01*
X359894D01*
X365892Y345866D02*
X368891D01*
X369891Y346866D01*
X368891Y347866D01*
X366892D01*
X365892Y348865D01*
X366892Y349865D01*
X369891D01*
X372890Y350865D02*
Y349865D01*
X371890D01*
X373889D01*
X372890D01*
Y346866D01*
X373889Y345866D01*
X382887Y351864D02*
Y345866D01*
X385886D01*
X386885Y346866D01*
Y347866D01*
X385886Y348865D01*
X382887D01*
X385886D01*
X386885Y349865D01*
Y350865D01*
X385886Y351864D01*
X382887D01*
X389884Y345866D02*
X391884D01*
X392883Y346866D01*
Y348865D01*
X391884Y349865D01*
X389884D01*
X388884Y348865D01*
Y346866D01*
X389884Y345866D01*
X395882Y349865D02*
X397882D01*
X398881Y348865D01*
Y345866D01*
X395882D01*
X394883Y346866D01*
X395882Y347866D01*
X398881D01*
X400881Y349865D02*
Y345866D01*
Y347866D01*
X401880Y348865D01*
X402880Y349865D01*
X403880D01*
X410877Y351864D02*
Y345866D01*
X407878D01*
X406879Y346866D01*
Y348865D01*
X407878Y349865D01*
X410877D01*
X371641Y277658D02*
Y282380D01*
X374003D01*
X374790Y281593D01*
Y280019D01*
X374003Y279232D01*
X371641D01*
X377152Y277658D02*
Y281593D01*
Y280019D01*
X376364D01*
X377939D01*
X377152D01*
Y281593D01*
X377939Y282380D01*
X380300Y281593D02*
X381087Y282380D01*
X382662D01*
X383449Y281593D01*
Y280806D01*
X382662Y280019D01*
X381874D01*
X382662D01*
X383449Y279232D01*
Y278445D01*
X382662Y277658D01*
X381087D01*
X380300Y278445D01*
X353937Y301378D02*
Y306101D01*
X356298D01*
X357086Y305314D01*
Y303739D01*
X356298Y302952D01*
X353937D01*
X359447Y301378D02*
Y305314D01*
Y303739D01*
X358660D01*
X360234D01*
X359447D01*
Y305314D01*
X360234Y306101D01*
X365744Y301378D02*
X362596D01*
X365744Y304526D01*
Y305314D01*
X364957Y306101D01*
X363383D01*
X362596Y305314D01*
X349016Y263878D02*
Y268601D01*
X351377D01*
X352164Y267814D01*
Y266239D01*
X351377Y265452D01*
X349016D01*
X354526Y263878D02*
Y267814D01*
Y266239D01*
X353739D01*
X355313D01*
X354526D01*
Y267814D01*
X355313Y268601D01*
X357674Y263878D02*
X359249D01*
X358461D01*
Y268601D01*
X357674Y267814D01*
X462697Y316634D02*
Y319782D01*
X464271Y321357D01*
X465845Y319782D01*
Y316634D01*
Y318995D01*
X462697D01*
X467420Y321357D02*
Y316634D01*
X469781D01*
X470568Y317421D01*
Y320570D01*
X469781Y321357D01*
X467420D01*
X475291Y320570D02*
X474504Y321357D01*
X472930D01*
X472143Y320570D01*
Y317421D01*
X472930Y316634D01*
X474504D01*
X475291Y317421D01*
X476865Y318995D02*
X480014D01*
X462697Y253445D02*
Y256593D01*
X464271Y258168D01*
X465845Y256593D01*
Y253445D01*
Y255806D01*
X462697D01*
X467420Y258168D02*
Y253445D01*
X469781D01*
X470568Y254232D01*
Y257381D01*
X469781Y258168D01*
X467420D01*
X475291Y257381D02*
X474504Y258168D01*
X472930D01*
X472143Y257381D01*
Y254232D01*
X472930Y253445D01*
X474504D01*
X475291Y254232D01*
X476865Y255806D02*
X480014D01*
X478440Y257381D02*
Y254232D01*
X321161Y298522D02*
X322736D01*
X321949D01*
Y293799D01*
X321161D01*
X322736D01*
X325097D02*
Y298522D01*
X328246Y293799D01*
Y298522D01*
X329820Y293799D02*
Y298522D01*
X332182D01*
X332969Y297735D01*
Y296161D01*
X332182Y295374D01*
X329820D01*
X334543Y298522D02*
Y294586D01*
X335330Y293799D01*
X336904D01*
X337691Y294586D01*
Y298522D01*
X339266D02*
X342414D01*
X340840D01*
Y293799D01*
D16*
X386454Y228565D02*
X394254D01*
D17*
X386118Y228829D02*
X386154Y228865D01*
M02*
