G04*
G04 #@! TF.GenerationSoftware,Altium Limited,Altium Designer,18.1.9 (240)*
G04*
G04 Layer_Color=8421504*
%FSLAX25Y25*%
%MOIN*%
G70*
G01*
G75*
%ADD18R,0.02559X0.03740*%
%ADD19R,0.19685X0.09016*%
%ADD20R,0.20000X0.09508*%
%ADD21R,0.06693X0.03543*%
%ADD22R,0.03543X0.06693*%
%ADD23R,0.03937X0.03347*%
%ADD24R,0.03937X0.03543*%
%ADD25R,0.03543X0.02362*%
%ADD26R,0.03200X0.01200*%
%ADD27R,0.01200X0.03200*%
%ADD28R,0.12800X0.12800*%
%ADD29R,0.05512X0.05118*%
%ADD30R,0.03347X0.03937*%
%ADD31R,0.02362X0.03543*%
%ADD32R,0.07165X0.04724*%
D18*
X335827Y287205D02*
D03*
X339567Y278150D02*
D03*
X332087D02*
D03*
D19*
X307087Y287402D02*
D03*
X500000Y255906D02*
D03*
Y318898D02*
D03*
D20*
X307087Y270148D02*
D03*
Y304658D02*
D03*
X500000Y238650D02*
D03*
Y273160D02*
D03*
Y336152D02*
D03*
Y301642D02*
D03*
D21*
X354023Y287106D02*
D03*
Y275689D02*
D03*
X365441Y287106D02*
D03*
Y275689D02*
D03*
D22*
Y294980D02*
D03*
X354023D02*
D03*
D23*
X391240Y294390D02*
D03*
Y288681D02*
D03*
X444193Y266536D02*
D03*
Y272244D02*
D03*
Y308268D02*
D03*
Y302559D02*
D03*
X458662Y284547D02*
D03*
Y290256D02*
D03*
X405020Y286417D02*
D03*
Y280709D02*
D03*
X398130Y286417D02*
D03*
Y280709D02*
D03*
X384842Y294390D02*
D03*
Y288681D02*
D03*
X391240Y300394D02*
D03*
Y306102D02*
D03*
X412008Y314469D02*
D03*
Y308760D02*
D03*
X418488Y314469D02*
D03*
Y308760D02*
D03*
X437008Y272244D02*
D03*
Y266535D02*
D03*
X410433Y268110D02*
D03*
Y273819D02*
D03*
X417323Y268110D02*
D03*
Y273819D02*
D03*
X437894Y319882D02*
D03*
Y314173D02*
D03*
Y302559D02*
D03*
Y308268D02*
D03*
D24*
X451083Y302756D02*
D03*
Y308071D02*
D03*
Y272047D02*
D03*
Y266732D02*
D03*
D25*
X451083Y290256D02*
D03*
Y296161D02*
D03*
X444193Y278642D02*
D03*
Y284547D02*
D03*
Y296161D02*
D03*
Y290256D02*
D03*
X451083Y284547D02*
D03*
Y278642D02*
D03*
X403740Y268012D02*
D03*
Y273917D02*
D03*
D26*
X413139Y298239D02*
D03*
Y296239D02*
D03*
Y294339D02*
D03*
Y292339D02*
D03*
Y290339D02*
D03*
Y288339D02*
D03*
Y286439D02*
D03*
Y284439D02*
D03*
X431939D02*
D03*
Y286439D02*
D03*
Y288339D02*
D03*
Y290339D02*
D03*
Y292339D02*
D03*
Y294339D02*
D03*
Y296239D02*
D03*
Y298239D02*
D03*
D27*
X415639Y281939D02*
D03*
X417639D02*
D03*
X419539D02*
D03*
X421539D02*
D03*
X423539D02*
D03*
X425539D02*
D03*
X427439D02*
D03*
X429439D02*
D03*
Y300739D02*
D03*
X427439D02*
D03*
X425539D02*
D03*
X423539D02*
D03*
X421539D02*
D03*
X419539D02*
D03*
X417639D02*
D03*
X415639D02*
D03*
D28*
X422539Y291339D02*
D03*
D29*
X377658Y294980D02*
D03*
Y288681D02*
D03*
X390354Y239665D02*
D03*
Y245965D02*
D03*
X403563Y239665D02*
D03*
Y245965D02*
D03*
D30*
X404626Y300689D02*
D03*
X398917D02*
D03*
Y307579D02*
D03*
X404626D02*
D03*
X429626Y267224D02*
D03*
X423917D02*
D03*
Y273622D02*
D03*
X429626D02*
D03*
X424803Y309055D02*
D03*
X430512D02*
D03*
Y315453D02*
D03*
X424803D02*
D03*
X429626Y254331D02*
D03*
X423917D02*
D03*
X429626Y260728D02*
D03*
X423917D02*
D03*
D31*
X398819Y315748D02*
D03*
X404724D02*
D03*
X423819Y248130D02*
D03*
X429724D02*
D03*
X418504D02*
D03*
X412598D02*
D03*
X435236Y241831D02*
D03*
X441142D02*
D03*
X429823D02*
D03*
X423917D02*
D03*
D32*
X390354Y231890D02*
D03*
Y220039D02*
D03*
M02*
