G04*
G04 #@! TF.GenerationSoftware,Altium Limited,Altium Designer,18.1.9 (240)*
G04*
G04 Layer_Physical_Order=4*
G04 Layer_Color=16711680*
%FSLAX25Y25*%
%MOIN*%
G70*
G01*
G75*
%ADD12C,0.00787*%
%ADD20R,0.20000X0.09508*%
%ADD54C,0.06000*%
%ADD55R,0.06000X0.06000*%
%ADD56C,0.01772*%
D12*
X420177Y298327D02*
X421555Y299705D01*
X411221Y298327D02*
X420177D01*
X408268Y295374D02*
X411221Y298327D01*
X422736Y319882D02*
X424803D01*
X421555Y318701D02*
X422736Y319882D01*
X421555Y299705D02*
Y318701D01*
X408268Y262598D02*
Y295374D01*
Y262598D02*
X413563Y257303D01*
Y222539D02*
Y257303D01*
X440551Y293504D02*
Y302953D01*
X439075Y304429D02*
X440551Y302953D01*
X426476Y304429D02*
X439075D01*
X439370Y292323D02*
X440551Y293504D01*
X427953Y292323D02*
X439370D01*
X428051Y258366D02*
X435236D01*
X426083Y260335D02*
X428051Y258366D01*
X426083Y260335D02*
Y290453D01*
X427953Y292323D01*
X421110Y294339D02*
X435433D01*
X419488Y292717D02*
X421110Y294339D01*
X419488Y263189D02*
Y292717D01*
X418504Y262205D02*
X419488Y263189D01*
X411319Y262205D02*
X418504D01*
X410433Y263091D02*
Y264764D01*
Y263091D02*
X411319Y262205D01*
X418898Y296239D02*
X437992D01*
X417323Y294664D02*
X418898Y296239D01*
X417323Y264764D02*
Y294664D01*
X409449Y300197D02*
Y318898D01*
X428839Y278346D02*
X435925D01*
D20*
X307087Y304658D02*
D03*
Y270146D02*
D03*
X500000Y273161D02*
D03*
Y238650D02*
D03*
Y301642D02*
D03*
Y336154D02*
D03*
D54*
X453563Y222539D02*
D03*
X413563D02*
D03*
X423563D02*
D03*
X433563D02*
D03*
X443563D02*
D03*
D55*
X403563D02*
D03*
D56*
X307087Y308102D02*
D03*
X303642D02*
D03*
X300197D02*
D03*
X310531D02*
D03*
X313976D02*
D03*
X300197Y301213D02*
D03*
X303642D02*
D03*
X307087D02*
D03*
X310531D02*
D03*
X313976D02*
D03*
X307087Y273592D02*
D03*
X303642D02*
D03*
X300197D02*
D03*
X310531D02*
D03*
X313976D02*
D03*
X300197Y266703D02*
D03*
X303642D02*
D03*
X307087D02*
D03*
X310531D02*
D03*
X313976D02*
D03*
X500000Y242094D02*
D03*
X496555D02*
D03*
X493110D02*
D03*
X503445D02*
D03*
X506890D02*
D03*
X493110Y235205D02*
D03*
X496555D02*
D03*
X500000D02*
D03*
X503445D02*
D03*
X506890D02*
D03*
X500000Y276606D02*
D03*
X496555D02*
D03*
X493110D02*
D03*
X503445D02*
D03*
X506890D02*
D03*
X493110Y269717D02*
D03*
X496555D02*
D03*
X500000D02*
D03*
X503445D02*
D03*
X506890D02*
D03*
X500000Y305087D02*
D03*
X496555D02*
D03*
X493110D02*
D03*
X503445D02*
D03*
X506890D02*
D03*
X493110Y298197D02*
D03*
X496555D02*
D03*
X500000D02*
D03*
X503445D02*
D03*
X506890D02*
D03*
X500000Y339598D02*
D03*
X496555D02*
D03*
X493110D02*
D03*
X503445D02*
D03*
X506890D02*
D03*
X493110Y332709D02*
D03*
X496555D02*
D03*
X500000D02*
D03*
X503445D02*
D03*
X506890D02*
D03*
X484842Y319291D02*
D03*
X482382Y316831D02*
D03*
X479921Y314370D02*
D03*
X477461Y312008D02*
D03*
X475000Y309547D02*
D03*
X472539Y306988D02*
D03*
X470079Y304496D02*
D03*
X467618Y302067D02*
D03*
X465158Y299606D02*
D03*
X462697Y297244D02*
D03*
X460236Y294685D02*
D03*
X437992Y284439D02*
D03*
X435039Y290339D02*
D03*
X437992Y290354D02*
D03*
X440945Y290339D02*
D03*
X440945Y284449D02*
D03*
X454724Y292717D02*
D03*
Y282087D02*
D03*
X463091Y287402D02*
D03*
X454724D02*
D03*
X487697Y321260D02*
D03*
Y253543D02*
D03*
X484842Y255512D02*
D03*
X482382Y257972D02*
D03*
X479921Y260433D02*
D03*
X477461Y262894D02*
D03*
X475000Y265354D02*
D03*
X472539Y267815D02*
D03*
X470079Y270276D02*
D03*
X467618Y272736D02*
D03*
X465158Y275197D02*
D03*
X462697Y277658D02*
D03*
X460236Y280118D02*
D03*
X487697Y316437D02*
D03*
X485236Y313976D02*
D03*
X482776Y311516D02*
D03*
X480315Y309154D02*
D03*
X477854Y306693D02*
D03*
X475394Y304134D02*
D03*
X472933Y301642D02*
D03*
X470472Y299213D02*
D03*
X468012Y296752D02*
D03*
X465551Y294390D02*
D03*
X463091Y291831D02*
D03*
X487697Y258366D02*
D03*
X485236Y260827D02*
D03*
X482776Y263287D02*
D03*
X480315Y265748D02*
D03*
X477854Y268209D02*
D03*
X475394Y270669D02*
D03*
X472933Y273130D02*
D03*
X470472Y275590D02*
D03*
X468012Y278051D02*
D03*
X465551Y280512D02*
D03*
X463091Y282972D02*
D03*
X390354Y223228D02*
D03*
X410128Y248130D02*
D03*
X406004Y292520D02*
D03*
X402559D02*
D03*
X399114D02*
D03*
X406004Y296260D02*
D03*
X402559Y296239D02*
D03*
X399114Y296260D02*
D03*
X395669D02*
D03*
Y292520D02*
D03*
X319390Y285433D02*
D03*
X322736D02*
D03*
X326279D02*
D03*
X329724D02*
D03*
X333169D02*
D03*
X319390Y289370D02*
D03*
X322835D02*
D03*
X326279D02*
D03*
X329724D02*
D03*
X333169D02*
D03*
X372539Y293012D02*
D03*
X369094D02*
D03*
Y296949D02*
D03*
X372539D02*
D03*
X348917Y285433D02*
D03*
X345472D02*
D03*
X342028D02*
D03*
X338583D02*
D03*
X348917Y289370D02*
D03*
X345472D02*
D03*
X342028D02*
D03*
X338583D02*
D03*
X411417Y280512D02*
D03*
X433465Y315453D02*
D03*
Y309055D02*
D03*
X437894Y311221D02*
D03*
X429626Y270423D02*
D03*
X437008Y263583D02*
D03*
X421063Y254331D02*
D03*
Y260728D02*
D03*
X443602Y241831D02*
D03*
X421457D02*
D03*
X391240Y285728D02*
D03*
X395965Y307579D02*
D03*
X395965Y300689D02*
D03*
X398130Y277756D02*
D03*
X354023Y272638D02*
D03*
X365453D02*
D03*
X335827Y278150D02*
D03*
X403563Y251457D02*
D03*
X434055Y319882D02*
D03*
Y302559D02*
D03*
X390354Y251476D02*
D03*
X403740Y264764D02*
D03*
X404626Y311516D02*
D03*
X422539Y291339D02*
D03*
X417323Y264764D02*
D03*
X410433Y264764D02*
D03*
X424803Y319882D02*
D03*
X426476Y304429D02*
D03*
X435433Y294339D02*
D03*
X437992Y296239D02*
D03*
X435039Y284439D02*
D03*
X435433Y298239D02*
D03*
X409449Y318898D02*
D03*
X435925Y278346D02*
D03*
X428839D02*
D03*
X435236Y258366D02*
D03*
X409449Y300197D02*
D03*
M02*
