G04*
G04 #@! TF.GenerationSoftware,Altium Limited,Altium Designer,18.1.9 (240)*
G04*
G04 Layer_Physical_Order=1*
G04 Layer_Color=255*
%FSLAX25Y25*%
%MOIN*%
G70*
G01*
G75*
%ADD11C,0.01575*%
%ADD12C,0.00787*%
%ADD15C,0.01000*%
%ADD16C,0.01181*%
%ADD18R,0.02559X0.03740*%
%ADD19R,0.19685X0.09016*%
%ADD20R,0.20000X0.09508*%
%ADD21R,0.06693X0.03543*%
%ADD22R,0.03543X0.06693*%
%ADD23R,0.03937X0.03347*%
%ADD24R,0.03937X0.03543*%
%ADD25R,0.03543X0.02362*%
%ADD26R,0.03200X0.01200*%
%ADD27R,0.01200X0.03200*%
%ADD28R,0.12800X0.12800*%
%ADD29R,0.05512X0.05118*%
%ADD30R,0.03347X0.03937*%
%ADD31R,0.02362X0.03543*%
%ADD32R,0.07165X0.04724*%
%ADD51C,0.01772*%
%ADD52R,0.05906X0.10236*%
%ADD53R,0.19784X0.12697*%
%ADD54C,0.06000*%
%ADD55R,0.06000X0.06000*%
%ADD56C,0.01772*%
D11*
X384842Y288681D02*
X384842Y288681D01*
D12*
X423524Y254331D02*
X423721Y254134D01*
X409076Y296239D02*
X413139D01*
X404626Y300689D02*
X409076Y296239D01*
X419539Y279283D02*
Y281939D01*
X417717Y277461D02*
X419539Y279283D01*
X411516Y277461D02*
X417717D01*
X410433Y276378D02*
X411516Y277461D01*
X410433Y273819D02*
Y276378D01*
X411417Y280512D02*
X412795Y279134D01*
X416929D01*
X417639Y279844D01*
Y281939D01*
X413386Y305020D02*
X417618D01*
X412008Y306398D02*
X413386Y305020D01*
X417618D02*
X419488Y303150D01*
Y300790D02*
Y303150D01*
X421063Y254331D02*
X421063Y254331D01*
X423917D01*
X421063Y260728D02*
X421063Y260728D01*
X423917D01*
X432235Y300739D02*
X434055Y302559D01*
X429439Y300739D02*
X432235D01*
X392323Y315748D02*
X398819D01*
X391240Y314665D02*
X392323Y315748D01*
X403740Y264764D02*
X403740Y264764D01*
X403740Y264764D02*
Y268012D01*
X405610Y318898D02*
X409449D01*
X404724Y318012D02*
X405610Y318898D01*
X404724Y315748D02*
Y318012D01*
X391240Y306102D02*
Y314665D01*
X404626Y311516D02*
X404626Y311516D01*
X404626Y307579D02*
Y311516D01*
X424016Y267323D02*
Y277559D01*
X415551Y243819D02*
Y259252D01*
X420866Y264567D01*
X413563Y241831D02*
X415551Y243819D01*
X424803Y315453D02*
X424803Y315453D01*
Y319882D01*
X425539Y303492D02*
X426476Y304429D01*
X425539Y300739D02*
Y303492D01*
X431939Y292339D02*
X431955Y292323D01*
X439370D01*
X440551Y293504D01*
Y297342D01*
X437894Y300000D02*
X440551Y297342D01*
X437894Y300000D02*
Y302559D01*
X431939Y294339D02*
X435433D01*
X431939Y296239D02*
X437992D01*
X434055Y302559D02*
X437894D01*
X434055Y319882D02*
X437894D01*
X431939Y298239D02*
X435433D01*
X415590Y300689D02*
Y302717D01*
X409350Y314469D02*
X412008D01*
X408366Y313484D02*
X409350Y314469D01*
X408366Y304429D02*
Y313484D01*
X414764Y303543D02*
X415590Y302717D01*
X409252Y303543D02*
X414764D01*
X408366Y304429D02*
X409252Y303543D01*
X417126Y318898D02*
X418504Y317520D01*
X409449Y318898D02*
X417126D01*
X410646Y292339D02*
X413139D01*
X408071Y289764D02*
X410646Y292339D01*
X399114Y289764D02*
X408071D01*
X410910Y290339D02*
X413139D01*
X406988Y286417D02*
X410910Y290339D01*
X405020Y286417D02*
X406988D01*
X398130D02*
Y288780D01*
X399114Y289764D01*
X404626Y300689D02*
Y307579D01*
X423721Y254134D02*
X423917Y254331D01*
X410433Y264764D02*
Y268110D01*
X417323Y264764D02*
Y268110D01*
X413563Y222539D02*
Y241831D01*
X446654Y225630D02*
Y244390D01*
X440551Y250492D02*
X446654Y244390D01*
X440551Y250492D02*
Y270866D01*
X443563Y222539D02*
X446654Y225630D01*
X427439Y279746D02*
X428839Y278346D01*
X427439Y279746D02*
Y281939D01*
X435925Y278346D02*
X437008Y277264D01*
Y272244D02*
Y277264D01*
Y272244D02*
X439173D01*
X440551Y270866D01*
X429724Y248130D02*
Y260630D01*
X431644Y281939D02*
X433071Y280512D01*
Y261319D02*
Y280512D01*
X432480Y260728D02*
X433071Y261319D01*
X435236Y241831D02*
Y258366D01*
X429823Y238287D02*
Y241831D01*
X423563Y232028D02*
X429823Y238287D01*
X423563Y222539D02*
Y232028D01*
X422539Y264567D02*
X423917Y265945D01*
X420866Y264567D02*
X422539D01*
X423917Y265945D02*
Y267224D01*
X435236Y227756D02*
Y241831D01*
X433563Y226083D02*
X435236Y227756D01*
X433563Y222539D02*
Y226083D01*
X429439Y281939D02*
X431644D01*
X429626Y260728D02*
X432480D01*
X429626D02*
X429724Y260630D01*
X418504Y248130D02*
X423819D01*
X426772Y243012D02*
X427953Y241831D01*
X426772Y243012D02*
Y277756D01*
X427953Y241831D02*
X429823D01*
X425539Y278988D02*
X426772Y277756D01*
X425539Y278988D02*
Y281939D01*
X442302Y286439D02*
X444193Y284547D01*
X431939Y286439D02*
X442302D01*
X442276Y288339D02*
X444193Y290256D01*
X431939Y288339D02*
X442276D01*
X427439Y300739D02*
X429439D01*
X409449Y298917D02*
Y300197D01*
Y298917D02*
X410128Y298239D01*
X413139D01*
X418488Y314469D02*
Y317504D01*
X418504Y317520D01*
X415590Y300689D02*
X415639Y300739D01*
X417639Y286439D02*
X422539Y291339D01*
X417639Y296239D02*
X422539Y291339D01*
X419488Y300790D02*
X419539Y300739D01*
X412008Y306398D02*
Y308760D01*
X421539Y300739D02*
Y303559D01*
X418488Y306610D02*
X421539Y303559D01*
X418488Y306610D02*
Y308760D01*
X424803Y309055D02*
Y315453D01*
Y306004D02*
Y309055D01*
X423539Y300739D02*
X423622Y300821D01*
Y304823D01*
X424803Y306004D01*
X423917Y267224D02*
X424016Y267323D01*
X423539Y278035D02*
X424016Y277559D01*
X423539Y278035D02*
Y281939D01*
X416390Y273819D02*
X421539Y278969D01*
X416390Y273819D02*
X417323D01*
X421539Y278969D02*
Y281939D01*
X403740Y273917D02*
Y275984D01*
X404823Y277067D01*
X407776D01*
X409055Y278346D01*
Y285335D01*
X410159Y286439D01*
X413139D01*
X391240Y294390D02*
X413088D01*
D15*
X487303Y318898D02*
X500000D01*
X458662Y290256D02*
X487303Y318898D01*
X487303Y255906D02*
X500000D01*
X458662Y284547D02*
X487303Y255906D01*
X444193Y296161D02*
Y302559D01*
Y308268D02*
X444390Y308071D01*
X451083D01*
Y302756D02*
X451083Y302756D01*
Y296161D02*
Y302756D01*
X458661Y290256D02*
X458662Y290256D01*
X451083Y290256D02*
X458661D01*
X458661Y284547D02*
X458662Y284547D01*
X451083Y284547D02*
X458661D01*
X444193Y272244D02*
Y278642D01*
Y266536D02*
X444390Y266732D01*
X451083D01*
Y272047D02*
X451083Y272047D01*
Y278642D01*
X413088Y294390D02*
X413139Y294339D01*
X391240Y294390D02*
Y300394D01*
X384842Y294390D02*
X391240D01*
X377658Y288681D02*
X384842D01*
X365441Y294980D02*
X377658D01*
X365441Y287106D02*
Y294980D01*
X307087Y287402D02*
X353728D01*
X354023Y287697D01*
Y294980D01*
D16*
X431939Y284439D02*
X435039D01*
X390354Y220039D02*
Y223228D01*
Y220039D02*
X390787D01*
X417639Y281939D02*
Y286439D01*
Y296239D02*
Y300739D01*
D18*
X335827Y287205D02*
D03*
X339567Y278150D02*
D03*
X332087D02*
D03*
D19*
X307087Y287402D02*
D03*
X500000Y255906D02*
D03*
Y318898D02*
D03*
D20*
X307087Y270148D02*
D03*
Y304658D02*
D03*
X500000Y238650D02*
D03*
Y273160D02*
D03*
Y336152D02*
D03*
Y301642D02*
D03*
D21*
X354023Y287106D02*
D03*
Y275689D02*
D03*
X365441Y287106D02*
D03*
Y275689D02*
D03*
D22*
Y294980D02*
D03*
X354023D02*
D03*
D23*
X391240Y294390D02*
D03*
Y288681D02*
D03*
X444193Y266536D02*
D03*
Y272244D02*
D03*
Y308268D02*
D03*
Y302559D02*
D03*
X458662Y284547D02*
D03*
Y290256D02*
D03*
X405020Y286417D02*
D03*
Y280709D02*
D03*
X398130Y286417D02*
D03*
Y280709D02*
D03*
X384842Y294390D02*
D03*
Y288681D02*
D03*
X391240Y300394D02*
D03*
Y306102D02*
D03*
X412008Y314469D02*
D03*
Y308760D02*
D03*
X418488Y314469D02*
D03*
Y308760D02*
D03*
X437008Y272244D02*
D03*
Y266535D02*
D03*
X410433Y268110D02*
D03*
Y273819D02*
D03*
X417323Y268110D02*
D03*
Y273819D02*
D03*
X437894Y319882D02*
D03*
Y314173D02*
D03*
Y302559D02*
D03*
Y308268D02*
D03*
D24*
X451083Y302756D02*
D03*
Y308071D02*
D03*
Y272047D02*
D03*
Y266732D02*
D03*
D25*
X451083Y290256D02*
D03*
Y296161D02*
D03*
X444193Y278642D02*
D03*
Y284547D02*
D03*
Y296161D02*
D03*
Y290256D02*
D03*
X451083Y284547D02*
D03*
Y278642D02*
D03*
X403740Y268012D02*
D03*
Y273917D02*
D03*
D26*
X413139Y298239D02*
D03*
Y296239D02*
D03*
Y294339D02*
D03*
Y292339D02*
D03*
Y290339D02*
D03*
Y288339D02*
D03*
Y286439D02*
D03*
Y284439D02*
D03*
X431939D02*
D03*
Y286439D02*
D03*
Y288339D02*
D03*
Y290339D02*
D03*
Y292339D02*
D03*
Y294339D02*
D03*
Y296239D02*
D03*
Y298239D02*
D03*
D27*
X415639Y281939D02*
D03*
X417639D02*
D03*
X419539D02*
D03*
X421539D02*
D03*
X423539D02*
D03*
X425539D02*
D03*
X427439D02*
D03*
X429439D02*
D03*
Y300739D02*
D03*
X427439D02*
D03*
X425539D02*
D03*
X423539D02*
D03*
X421539D02*
D03*
X419539D02*
D03*
X417639D02*
D03*
X415639D02*
D03*
D28*
X422539Y291339D02*
D03*
D29*
X377658Y294980D02*
D03*
Y288681D02*
D03*
X390354Y239665D02*
D03*
Y245965D02*
D03*
X403563Y239665D02*
D03*
Y245965D02*
D03*
D30*
X404626Y300689D02*
D03*
X398917D02*
D03*
Y307579D02*
D03*
X404626D02*
D03*
X429626Y267224D02*
D03*
X423917D02*
D03*
Y273622D02*
D03*
X429626D02*
D03*
X424803Y309055D02*
D03*
X430512D02*
D03*
Y315453D02*
D03*
X424803D02*
D03*
X429626Y254331D02*
D03*
X423917D02*
D03*
X429626Y260728D02*
D03*
X423917D02*
D03*
D31*
X398819Y315748D02*
D03*
X404724D02*
D03*
X423819Y248130D02*
D03*
X429724D02*
D03*
X418504D02*
D03*
X412598D02*
D03*
X435236Y241831D02*
D03*
X441142D02*
D03*
X429823D02*
D03*
X423917D02*
D03*
D32*
X390354Y231890D02*
D03*
Y220039D02*
D03*
D51*
X437894Y308268D02*
Y314173D01*
X429626Y270423D02*
Y273622D01*
Y267224D02*
Y270423D01*
X430512Y315453D02*
X433465D01*
X433464Y309055D02*
X433465Y309055D01*
X430512Y309055D02*
X433464D01*
X437008Y263583D02*
X437008Y263583D01*
X437008Y263583D02*
Y266535D01*
X335827Y278150D02*
X339567D01*
X332087D02*
X335827D01*
X391240Y285728D02*
Y288681D01*
X441142Y241831D02*
X443602D01*
X421457D02*
X423917D01*
X410128Y248130D02*
X412598D01*
X395965Y307579D02*
X398917D01*
X395965Y300689D02*
X395965Y300689D01*
X398917D01*
X398130Y280709D02*
X405020D01*
X398130Y277756D02*
X398130Y277756D01*
Y280709D01*
X365441Y272650D02*
X365453Y272638D01*
X365441Y272650D02*
Y275689D01*
X354023Y272638D02*
Y275689D01*
X403563Y245965D02*
Y251457D01*
X390354Y245965D02*
Y251476D01*
D52*
X403543Y224705D02*
D03*
D53*
X396604Y235876D02*
D03*
D54*
X453563Y222539D02*
D03*
X413563D02*
D03*
X423563D02*
D03*
X433563D02*
D03*
X443563D02*
D03*
D55*
X403563D02*
D03*
D56*
X307087Y308102D02*
D03*
X303642D02*
D03*
X300197D02*
D03*
X310531D02*
D03*
X313976D02*
D03*
X300197Y301213D02*
D03*
X303642D02*
D03*
X307087D02*
D03*
X310531D02*
D03*
X313976D02*
D03*
X307087Y273592D02*
D03*
X303642D02*
D03*
X300197D02*
D03*
X310531D02*
D03*
X313976D02*
D03*
X300197Y266703D02*
D03*
X303642D02*
D03*
X307087D02*
D03*
X310531D02*
D03*
X313976D02*
D03*
X500000Y242094D02*
D03*
X496555D02*
D03*
X493110D02*
D03*
X503445D02*
D03*
X506890D02*
D03*
X493110Y235205D02*
D03*
X496555D02*
D03*
X500000D02*
D03*
X503445D02*
D03*
X506890D02*
D03*
X500000Y276606D02*
D03*
X496555D02*
D03*
X493110D02*
D03*
X503445D02*
D03*
X506890D02*
D03*
X493110Y269717D02*
D03*
X496555D02*
D03*
X500000D02*
D03*
X503445D02*
D03*
X506890D02*
D03*
X500000Y305087D02*
D03*
X496555D02*
D03*
X493110D02*
D03*
X503445D02*
D03*
X506890D02*
D03*
X493110Y298197D02*
D03*
X496555D02*
D03*
X500000D02*
D03*
X503445D02*
D03*
X506890D02*
D03*
X500000Y339598D02*
D03*
X496555D02*
D03*
X493110D02*
D03*
X503445D02*
D03*
X506890D02*
D03*
X493110Y332709D02*
D03*
X496555D02*
D03*
X500000D02*
D03*
X503445D02*
D03*
X506890D02*
D03*
X484842Y319291D02*
D03*
X482382Y316831D02*
D03*
X479921Y314370D02*
D03*
X477461Y312008D02*
D03*
X475000Y309547D02*
D03*
X472539Y306988D02*
D03*
X470079Y304496D02*
D03*
X467618Y302067D02*
D03*
X465158Y299606D02*
D03*
X462697Y297244D02*
D03*
X460236Y294685D02*
D03*
X437992Y284439D02*
D03*
X435039Y290339D02*
D03*
X437992Y290354D02*
D03*
X440945Y290339D02*
D03*
X440945Y284449D02*
D03*
X454724Y292717D02*
D03*
Y282087D02*
D03*
X463091Y287402D02*
D03*
X454724D02*
D03*
X487697Y321260D02*
D03*
Y253543D02*
D03*
X484842Y255512D02*
D03*
X482382Y257972D02*
D03*
X479921Y260433D02*
D03*
X477461Y262894D02*
D03*
X475000Y265354D02*
D03*
X472539Y267815D02*
D03*
X470079Y270276D02*
D03*
X467618Y272736D02*
D03*
X465158Y275197D02*
D03*
X462697Y277658D02*
D03*
X460236Y280118D02*
D03*
X487697Y316437D02*
D03*
X485236Y313976D02*
D03*
X482776Y311516D02*
D03*
X480315Y309154D02*
D03*
X477854Y306693D02*
D03*
X475394Y304134D02*
D03*
X472933Y301642D02*
D03*
X470472Y299213D02*
D03*
X468012Y296752D02*
D03*
X465551Y294390D02*
D03*
X463091Y291831D02*
D03*
X487697Y258366D02*
D03*
X485236Y260827D02*
D03*
X482776Y263287D02*
D03*
X480315Y265748D02*
D03*
X477854Y268209D02*
D03*
X475394Y270669D02*
D03*
X472933Y273130D02*
D03*
X470472Y275590D02*
D03*
X468012Y278051D02*
D03*
X465551Y280512D02*
D03*
X463091Y282972D02*
D03*
X390354Y223228D02*
D03*
X410128Y248130D02*
D03*
X406004Y292520D02*
D03*
X402559D02*
D03*
X399114D02*
D03*
X406004Y296260D02*
D03*
X402559Y296239D02*
D03*
X399114Y296260D02*
D03*
X395669D02*
D03*
Y292520D02*
D03*
X319390Y285433D02*
D03*
X322736D02*
D03*
X326279D02*
D03*
X329724D02*
D03*
X333169D02*
D03*
X319390Y289370D02*
D03*
X322835D02*
D03*
X326279D02*
D03*
X329724D02*
D03*
X333169D02*
D03*
X372539Y293012D02*
D03*
X369094D02*
D03*
Y296949D02*
D03*
X372539D02*
D03*
X348917Y285433D02*
D03*
X345472D02*
D03*
X342028D02*
D03*
X338583D02*
D03*
X348917Y289370D02*
D03*
X345472D02*
D03*
X342028D02*
D03*
X338583D02*
D03*
X411417Y280512D02*
D03*
X433465Y315453D02*
D03*
Y309055D02*
D03*
X437894Y311221D02*
D03*
X429626Y270423D02*
D03*
X437008Y263583D02*
D03*
X421063Y254331D02*
D03*
Y260728D02*
D03*
X443602Y241831D02*
D03*
X421457D02*
D03*
X391240Y285728D02*
D03*
X395965Y307579D02*
D03*
X395965Y300689D02*
D03*
X398130Y277756D02*
D03*
X354023Y272638D02*
D03*
X365453D02*
D03*
X335827Y278150D02*
D03*
X403563Y251457D02*
D03*
X434055Y319882D02*
D03*
Y302559D02*
D03*
X390354Y251476D02*
D03*
X403740Y264764D02*
D03*
X404626Y311516D02*
D03*
X422539Y291339D02*
D03*
X417323Y264764D02*
D03*
X410433Y264764D02*
D03*
X424803Y319882D02*
D03*
X426476Y304429D02*
D03*
X435433Y294339D02*
D03*
X437992Y296239D02*
D03*
X435039Y284439D02*
D03*
X435433Y298239D02*
D03*
X409449Y318898D02*
D03*
X435925Y278346D02*
D03*
X428839D02*
D03*
X435236Y258366D02*
D03*
X409449Y300197D02*
D03*
M02*
